<?xml version="1.0" encoding="utf-8"?>
<!-- Generator: Adobe Illustrator 25.4.1, SVG Export Plug-In . SVG Version: 6.00 Build 0)  -->
<svg version="1.1" id="Layer_1" xmlns="http://www.w3.org/2000/svg" xmlns:xlink="http://www.w3.org/1999/xlink" x="0px" y="0px"
	 viewBox="0 0 29.9 34.4" style="enable-background:new 0 0 29.9 34.4;" xml:space="preserve">
<style type="text/css">
	.st0{fill:#3D3D3B;}
	.st1{fill:none;stroke:#3D3D3B;stroke-width:0.5;stroke-miterlimit:10;}
</style>
<path class="st0" d="M11.7,27.7c-0.2,0-0.4,0-0.6-0.1l-6.2-2.6C4.4,24.7,4,24.2,4,23.6V8.2c0-0.8,0.7-1.5,1.5-1.5h11
	c0.8,0,1.5,0.7,1.5,1.5v5.7c0,0.2-0.2,0.4-0.4,0.4c-0.2,0-0.4-0.2-0.4-0.4V8.2c0-0.4-0.3-0.7-0.7-0.7H6.2l6,2.5
	c0.6,0.2,0.9,0.8,0.9,1.4v14.8c0,0.5-0.3,1-0.7,1.2C12.3,27.6,12,27.7,11.7,27.7 M4.9,7.8C4.9,8,4.8,8.1,4.8,8.2v15.3
	c0,0.3,0.2,0.5,0.4,0.6l6.2,2.6c0.2,0.1,0.5,0.1,0.7-0.1c0.2-0.1,0.3-0.3,0.3-0.6V11.4c0-0.3-0.2-0.5-0.4-0.6L4.9,7.8z"/>
<path class="st1" d="M11.7,27.7c-0.2,0-0.4,0-0.6-0.1l-6.2-2.6C4.4,24.7,4,24.2,4,23.6V8.2c0-0.8,0.7-1.5,1.5-1.5h11
	c0.8,0,1.5,0.7,1.5,1.5v5.7c0,0.2-0.2,0.4-0.4,0.4c-0.2,0-0.4-0.2-0.4-0.4V8.2c0-0.4-0.3-0.7-0.7-0.7H6.2l6,2.5
	c0.6,0.2,0.9,0.8,0.9,1.4v14.8c0,0.5-0.3,1-0.7,1.2C12.3,27.6,12,27.7,11.7,27.7z M4.9,7.8C4.9,8,4.8,8.1,4.8,8.2v15.3
	c0,0.3,0.2,0.5,0.4,0.6l6.2,2.6c0.2,0.1,0.5,0.1,0.7-0.1c0.2-0.1,0.3-0.3,0.3-0.6V11.4c0-0.3-0.2-0.5-0.4-0.6L4.9,7.8z"/>
<path class="st0" d="M16.5,24.4H13c-0.2,0-0.4-0.2-0.4-0.4c0-0.2,0.2-0.4,0.4-0.4h3.4c0.4,0,0.8-0.4,0.8-0.8v-5.2
	c0-0.2,0.2-0.4,0.4-0.4c0.2,0,0.4,0.2,0.4,0.4v5.2C18.1,23.7,17.4,24.4,16.5,24.4"/>
<path class="st1" d="M16.5,24.4H13c-0.2,0-0.4-0.2-0.4-0.4c0-0.2,0.2-0.4,0.4-0.4h3.4c0.4,0,0.8-0.4,0.8-0.8v-5.2
	c0-0.2,0.2-0.4,0.4-0.4c0.2,0,0.4,0.2,0.4,0.4v5.2C18.1,23.7,17.4,24.4,16.5,24.4z"/>
<path class="st0" d="M25,16h-8.7c-0.2,0-0.4-0.2-0.4-0.4c0-0.2,0.2-0.4,0.4-0.4H25c0.2,0,0.4,0.2,0.4,0.4C25.4,15.9,25.2,16,25,16"
	/>
<path class="st1" d="M25,16h-8.7c-0.2,0-0.4-0.2-0.4-0.4c0-0.2,0.2-0.4,0.4-0.4H25c0.2,0,0.4,0.2,0.4,0.4C25.4,15.9,25.2,16,25,16z"
	/>
<path class="st0" d="M21.5,20c-0.1,0-0.2,0-0.3-0.1c-0.2-0.2-0.2-0.4,0-0.6l3.6-3.7l-3.6-3.7c-0.2-0.2-0.1-0.4,0-0.6
	c0.2-0.2,0.4-0.1,0.6,0l4.1,4.3l-4.1,4.2C21.7,20,21.6,20,21.5,20"/>
<path class="st1" d="M21.5,20c-0.1,0-0.2,0-0.3-0.1c-0.2-0.2-0.2-0.4,0-0.6l3.6-3.7l-3.6-3.7c-0.2-0.2-0.1-0.4,0-0.6
	c0.2-0.2,0.4-0.1,0.6,0l4.1,4.3l-4.1,4.2C21.7,20,21.6,20,21.5,20z"/>
</svg>
